<?xml version="1.0" encoding="UTF-8"?>
<svg version="1.1" xmlns="http://www.w3.org/2000/svg" width="800" height="800" viewBox="0 0 193 213"><path d="M0 0 C4.20150847 1.29714133 7.94719517 2.89282146 11.81640625 4.9765625 C12.9048584 5.56131348 13.99331055 6.14606445 15.11474609 6.74853516 C16.25250488 7.36776855 17.39026367 7.98700195 18.5625 8.625 C19.1434845 8.93991394 19.72446899 9.25482788 20.32305908 9.57928467 C47.60564883 24.37468695 47.60564883 24.37468695 49.9375 30.4375 C50.02275632 33.9330093 49.08819933 35.18800249 47 38 C44.69578576 39.83339324 42.21952596 41.3156109 39.6875 42.8125 C38.62269409 43.46206665 38.62269409 43.46206665 37.53637695 44.12475586 C33.5502385 46.53969621 29.51168508 48.8437024 25.43188477 51.09570312 C-0.04011608 65.21314516 -15.6350804 89.23722805 -24.12109375 116.6171875 C-24.8471795 119.4034113 -25.47064491 122.17068829 -26 125 C-26.226875 126.155 -26.45375 127.31 -26.6875 128.5 C-27.83893759 141.39610101 -26.93158233 154.23866043 -19 165 C-13.06996882 171.79041517 -6.50643778 174.49014465 2.375 175.3125 C7.63879056 174.85872495 12.806357 173.95515273 18 173 C15.4935945 175.80955262 12.70065552 177.47111394 9.44140625 179.328125 C8.33216797 179.96363281 7.22292969 180.59914062 6.08007812 181.25390625 C4.90764846 181.91944065 3.73512207 182.58480466 2.5625 183.25 C0.29280887 184.54659516 -1.97672313 185.84346894 -4.24609375 187.140625 C-5.36612793 187.77701904 -6.48616211 188.41341309 -7.64013672 189.0690918 C-11.91766262 191.52737928 -16.14499124 194.06717747 -20.36352539 196.62524414 C-24.12889 198.58864521 -27.7551475 199.63852654 -32 199 C-35.07049877 196.85065086 -35.81691629 195.54925112 -37 192 C-37.10651752 189.40819598 -37.161141 186.83847967 -37.17578125 184.24609375 C-37.19903776 182.65168035 -37.22315717 181.05727936 -37.24804688 179.46289062 C-37.28266332 176.97559014 -37.31221765 174.4887289 -37.32592773 172.0012207 C-37.42480828 156.96377143 -39.10095849 142.08672356 -45.25 128.1875 C-45.54592041 127.49648193 -45.84184082 126.80546387 -46.14672852 126.09350586 C-55.61916245 104.65381006 -71.53230492 86.43293148 -92.78515625 76.23046875 C-101.06826943 73.06013989 -110.59896833 71.51034069 -119 75 C-121.17735532 76.19601207 -123.23231354 77.46355898 -125.2734375 78.87890625 C-127 80 -127 80 -130 81 C-131.12095027 82.84544344 -131.12095027 82.84544344 -132 85 C-132.33 85.61359375 -132.66 86.2271875 -133 86.859375 C-135.46069258 91.51162191 -136.89719747 95.85358819 -138 101 C-138.33 101 -138.66 101 -139 101 C-139.07618093 93.989166 -139.12865495 86.97843911 -139.16479492 79.96728516 C-139.179864 77.58312999 -139.20032291 75.19900247 -139.22631836 72.81494141 C-139.26278337 69.38437063 -139.27974552 65.954167 -139.29296875 62.5234375 C-139.30845261 61.46071625 -139.32393646 60.397995 -139.33988953 59.30307007 C-139.34114295 53.76822631 -139.14828248 49.77543432 -136 45 C-135 44 -135 44 -132.375 43.71875 C-128.31115297 44.05740392 -125.465773 45.51178647 -122 47.5 C-121.34990967 47.85876221 -120.69981934 48.21752441 -120.0300293 48.5871582 C-116.1748591 50.72622506 -112.36830744 52.94729984 -108.56152344 55.17089844 C-84.18162086 69.34146158 -55.37150793 73.78766515 -27.73413086 66.76879883 C-14.5394685 63.03589965 1.44500174 56.53950134 9.1875 44.5625 C9.67605469 43.82128906 10.16460937 43.08007812 10.66796875 42.31640625 C14.43173592 35.7712041 15.50044101 29.5030871 14.4375 22.0625 C12.08789453 14.19915368 7.29129232 7.77012822 1.3203125 2.27734375 C0.88460937 1.85582031 0.44890625 1.43429687 0 1 C0 0.67 0 0.34 0 0 Z " fill="#000000" transform="translate(139,14)"/>
<path d="M0 0 C3.05561128 23.68098741 3.05561128 23.68098741 -2.8828125 32.93359375 C-6.76117888 37.29544402 -12.09740557 39.62910207 -17.1875 42.3125 C-32.29125129 50.63650671 -40.29288165 57.9764666 -47 74 C-48.88005085 80.58531471 -48.93148035 88.05031224 -46.875 94.5625 C-44.45475641 97.70881666 -42.62664867 99.32099599 -39 101 C-25.67649353 101.85958106 -11.15960413 90.55626743 0 84 C0.11689626 87.37470504 0.18747934 90.7488843 0.25 94.125 C0.28351563 95.07632813 0.31703125 96.02765625 0.3515625 97.0078125 C0.43287311 102.86217647 0.13623533 106.49760614 -4 111 C-6.12237475 112.62958061 -8.10036937 114.01142245 -10.375 115.375 C-10.98714355 115.75293701 -11.59928711 116.13087402 -12.22998047 116.52026367 C-14.14518354 117.69420044 -16.07200548 118.84722403 -18 120 C-18.60263672 120.3697998 -19.20527344 120.73959961 -19.82617188 121.12060547 C-32.01379102 128.59937176 -43.33035283 133.71742211 -58 132 C-63.87490527 130.50320885 -67.37244525 127.14350381 -70.75 122.21484375 C-78.64248366 108.23034926 -76.98868941 90.95317693 -73 76 C-68.5531925 61.32108501 -61.53157069 49.01357102 -52 37 C-51.46246094 36.31808594 -50.92492187 35.63617188 -50.37109375 34.93359375 C-41.19934215 23.76255025 -29.09322687 16.47119632 -16.56323242 9.64379883 C-11.68092933 6.97411943 -6.98508594 4.17271172 -2.43359375 0.9609375 C-1 0 -1 0 0 0 Z " fill="#000000" transform="translate(192,53)"/>
<path d="M0 0 C21.85169322 16.26844121 36.65122411 40.24900565 41.18579102 67.09204102 C41.73813029 71.61963115 41.88808909 76.07641849 41.9765625 80.6328125 C41.9973436 81.53294571 42.01812469 82.43307892 42.03953552 83.36048889 C42.10449462 86.21291062 42.16366453 89.065418 42.22265625 91.91796875 C42.26589258 93.86133669 42.30950844 95.80469623 42.35351562 97.74804688 C42.4601204 102.49210154 42.5615362 107.23624166 42.66015625 111.98046875 C40.11395513 110.7277529 37.5700907 109.47063041 35.02734375 108.2109375 C33.95649536 107.68493958 33.95649536 107.68493958 32.86401367 107.14831543 C18.11886235 99.82643943 18.11886235 99.82643943 15.56347656 94.84082031 C14.4608879 91.3494882 14.38141064 88.09827405 14.38671875 84.4765625 C14.36640672 82.99803962 14.34555555 81.51952407 14.32421875 80.04101562 C14.30179368 77.73976451 14.28520979 75.4388059 14.27929688 73.13745117 C14.20986377 57.06542305 11.06663575 44.67942633 -0.21484375 32.66796875 C-4.98241859 28.12698967 -9.75277444 24.88880757 -16.46484375 24.48046875 C-20.96258129 25.06082198 -22.98717904 25.93967983 -26.33984375 28.98046875 C-29.78874613 35.40256284 -30.47050163 41.49705099 -30.4375 48.69140625 C-30.43266602 50.55732422 -30.43266602 50.55732422 -30.42773438 52.4609375 C-30.41935547 53.74613281 -30.41097656 55.03132813 -30.40234375 56.35546875 C-30.39783203 57.66386719 -30.39332031 58.97226563 -30.38867188 60.3203125 C-30.37691969 63.54041156 -30.36048918 66.76041645 -30.33984375 69.98046875 C-34.61576697 68.61201054 -38.16715645 67.08030251 -41.96484375 64.66796875 C-42.88523437 64.09433594 -43.805625 63.52070313 -44.75390625 62.9296875 C-48.90151588 59.8033171 -51.02267866 57.53608799 -52.078125 52.359375 C-53.46502733 34.98852499 -55.05871546 12.71041931 -44.33984375 -2.01953125 C-30.93806061 -14.14384806 -13.69186638 -9.23954724 0 0 Z " fill="#000000" transform="translate(56.33984375,100.01953125)"/>
<path d="M0 0 C3.22997166 1.53599196 6.32267672 3.23376313 9.4375 4.9921875 C10.11087402 5.3619873 10.78424805 5.73178711 11.47802734 6.11279297 C24.80259132 13.44567335 37.3761749 20.8082122 42.4375 35.9921875 C43.40992336 44.82370453 41.26252501 51.60559698 35.875 58.6171875 C23.10262786 72.48066681 1.68092039 77.98943412 -16.5715332 79.11621094 C-40.10859301 80.02808555 -59.09509608 74.41341802 -79.5625 62.9921875 C-81.01814645 62.18865222 -82.47387745 61.3852701 -83.9296875 60.58203125 C-85.37030371 59.78217153 -86.81042064 58.98141182 -88.25 58.1796875 C-88.92135986 57.80682617 -89.59271973 57.43396484 -90.28442383 57.04980469 C-93.54571147 55.21520044 -96.64157388 53.33632315 -99.5625 50.9921875 C-93.66666291 47.03355403 -87.64545366 43.32501624 -81.375 39.9921875 C-80.26769531 39.3940625 -79.16039062 38.7959375 -78.01953125 38.1796875 C-73.8076365 36.73288975 -70.74041672 36.63253497 -66.5625 37.9921875 C-62.80226359 39.85608679 -59.28825725 42.05262466 -55.75 44.3046875 C-42.90630112 52.42075474 -30.22390878 58.07013776 -14.75390625 55.53125 C-7.41815302 53.76234497 0.66049151 50.87010359 5.19140625 44.54296875 C6.92410094 40.99610469 7.07398706 37.81868711 6.4375 33.9921875 C1.2593059 22.15631528 -15.7931663 15.75670777 -26.5625 9.9921875 C-19.44563318 2.4649788 -10.43126433 -4.10253993 0 0 Z " fill="#000000" transform="translate(107.5625,1.0078125)"/>
<path d="M0 0 C7.09950242 2.79274375 13.86660518 7.33130465 19 13 C20.71270362 18.13811085 20.82038447 22.29086569 18.5 27.125 C11.07942533 35.65866087 -3.51622088 45.39646943 -14.875 46.3125 C-18.13188701 46.2765123 -19.0199955 45.98766235 -21.9375 44.1875 C-25.49410564 40.4153425 -25.28554363 36.66705516 -25.20703125 31.7421875 C-24.32265741 20.02840566 -17.80525367 10.20502524 -9.48046875 2.2421875 C-6.38479734 -0.35523601 -3.95903303 -0.27453149 0 0 Z " fill="#000000" transform="translate(172,104)"/>
<path d="M0 0 C22.70572014 11.54381031 22.70572014 11.54381031 25.296875 19.14453125 C25.38026342 23.48072902 24.26182343 26.26544327 21.359375 29.39453125 C12.99242915 35.18585989 3.3297534 37.17596995 -6.68359375 36.015625 C-11.85874706 34.92863771 -19.79940147 33.23575478 -23.640625 29.39453125 C-23.92106544 26.1949608 -23.87251281 22.97991716 -23.890625 19.76953125 C-23.91125 18.87878906 -23.931875 17.98804687 -23.953125 17.0703125 C-23.99311932 10.28127668 -23.13973356 5.36222267 -18.640625 0.01953125 C-13.02754177 -4.54109887 -6.09562184 -2.68809075 0 0 Z " fill="#000000" transform="translate(85.640625,17.60546875)"/>
<path d="M0 0 C6.14812062 0.15060238 9.94093092 2.43804354 14.4375 6.5 C23.21925592 15.76770289 27.4375 26.74015552 27.4375 39.5 C8.88049759 51.02723097 8.88049759 51.02723097 0.57421875 50.0859375 C-2.7606707 49.171434 -4.38859041 48.21738699 -6.5625 45.5 C-10.21863842 38.09854904 -10.01077318 31.01646403 -9.9375 22.875 C-9.94910156 21.57820313 -9.96070312 20.28140625 -9.97265625 18.9453125 C-9.96878906 17.69234375 -9.96492188 16.439375 -9.9609375 15.1484375 C-9.95755371 14.01583496 -9.95416992 12.88323242 -9.95068359 11.71630859 C-9.17669693 5.30341529 -6.7967454 0.25527682 0 0 Z " fill="#000000" transform="translate(39.5625,128.5)"/>
<path d="" fill="#000000" transform="translate(0,0)"/>
</svg>
